<svg width="140" height="24" viewBox="0 0 140 24" fill="none" xmlns="http://www.w3.org/2000/svg">
<path d="M13.9585 0.948565H10.2912C7.12394 0.870312 5.81221 3.02426 6.40905 4.86254C6.48863 5.10791 6.59474 5.34665 6.70349 5.62518C4.90633 4.62646 3.13834 4.46995 1.43932 5.65701C0.228386 6.50321 -0.267655 8.1054 0.298685 9.47019C0.923383 10.9729 2.14758 11.7117 3.64102 12.0207C2.5468 12.1653 1.61307 12.6945 0.863695 13.5553C-0.223889 14.802 -0.1841 16.7544 0.959191 17.9454C2.51762 19.5648 4.80155 19.4799 6.67697 18.4812C6.64779 18.5502 6.61596 18.6192 6.58413 18.6855C6.05227 19.8407 6.28836 21.2267 7.22607 22.0875C8.17837 22.9642 9.32431 23.0531 10.514 23.0531H13.9585C17.009 23.0531 19.7731 21.8156 21.7719 19.8168C23.7719 17.8167 25.0081 15.054 25.0081 12.0008C25.0081 5.8984 20.0609 0.951217 13.9585 0.951217V0.948565ZM3.35851 10.0975C2.70728 9.58027 2.40754 8.89589 2.62903 8.07357C3.10916 6.3016 5.86128 6.06419 6.89979 7.88258C7.24729 8.49136 7.30697 9.14789 6.9608 9.77259C6.57219 10.4755 5.92097 10.7541 5.12119 10.7395C4.45936 10.7527 3.87312 10.5047 3.35851 10.0975ZM6.90112 16.245C6.38253 17.0448 5.6252 17.4334 4.76176 17.448C3.96597 17.4374 3.35718 17.2 2.91154 16.6403C1.54808 14.936 3.84925 12.7064 5.86924 13.3404C7.10007 13.7277 7.61203 15.1482 6.90112 16.2437V16.245ZM8.55107 3.7869C9.04711 2.38099 11.3722 2.16746 12.4107 3.6914C13.2011 4.85061 12.5871 6.23263 11.2011 6.40638C10.3734 6.51116 9.63334 6.26712 9.02854 5.68884C8.47944 5.16229 8.29243 4.5177 8.55107 3.78557V3.7869ZM12.5101 20.1497C11.3788 22.065 8.63197 21.492 8.47149 19.7956C8.32426 18.2372 10.1957 17.1522 11.5923 17.6496C12.6454 18.021 13.0778 19.1842 12.5088 20.1497H12.5101Z" fill="#5C382E"/>
<path d="M13.9584 23.1168H10.514C9.36801 23.1168 8.16636 23.0412 7.1809 22.134C6.23125 21.2612 5.96732 19.8633 6.52437 18.655C6.52968 18.6444 6.53366 18.6338 6.53896 18.6245C4.86647 19.4535 2.56132 19.7028 0.912697 17.9892C-0.243856 16.7836 -0.287622 14.7742 0.815878 13.5102C1.50955 12.7131 2.34645 12.2091 3.30539 12.0088C1.78409 11.6189 0.780067 10.7939 0.238927 9.4941C-0.335371 8.11075 0.154041 6.47407 1.40211 5.60135C2.96717 4.50713 4.66089 4.46734 6.57477 5.47933C6.56151 5.44617 6.54825 5.41301 6.53498 5.37985C6.46601 5.20876 6.40102 5.04695 6.34664 4.88248C6.05618 3.98721 6.20871 3.04552 6.76444 2.2988C7.46872 1.35579 8.7075 0.850456 10.254 0.883614H13.9584C20.0874 0.883614 25.0743 5.87059 25.0743 11.9995C25.0743 14.9705 23.9178 17.7624 21.8182 19.862C19.7186 21.9615 16.9267 23.1181 13.9571 23.1181L13.9584 23.1168ZM6.81218 18.3314L6.73658 18.5051C6.70608 18.5741 6.67425 18.6444 6.64241 18.712C6.11056 19.8673 6.36256 21.2042 7.26844 22.0371C8.21941 22.9112 9.39188 22.9855 10.5126 22.9855H13.9571C16.8909 22.9855 19.6497 21.8435 21.724 19.7691C23.7984 17.6948 24.9404 14.936 24.9404 12.0009C24.9404 5.94486 20.0131 1.01757 13.9571 1.01757H10.2872C8.76321 0.981764 7.55227 1.46454 6.86921 2.38103C6.33869 3.09194 6.19279 3.99119 6.47132 4.84534C6.52437 5.00583 6.58804 5.16631 6.65701 5.33475C6.69149 5.42096 6.72863 5.51115 6.76444 5.604L6.83075 5.77509L6.67027 5.68623C4.73914 4.61324 3.04012 4.62252 1.47638 5.71408C0.278715 6.55099 -0.190801 8.12136 0.359623 9.44768C0.919331 10.7939 1.99763 11.6162 3.65421 11.9584L4.03752 12.038L3.65023 12.0897C2.58519 12.2303 1.66473 12.7396 0.915353 13.6017C-0.144379 14.8153 -0.10194 16.7438 1.00819 17.9017C2.66212 19.6206 5.00573 19.2996 6.64639 18.4242L6.81351 18.3354L6.81218 18.3314ZM10.4437 21.4138C10.258 21.4138 10.0802 21.3925 9.91711 21.3567C9.06958 21.1671 8.47539 20.557 8.4051 19.8023C8.34144 19.1325 8.64383 18.4866 9.23139 18.0277C9.92108 17.4905 10.8561 17.3181 11.6135 17.5873C12.1374 17.773 12.5419 18.1643 12.7223 18.6603C12.9013 19.1537 12.8443 19.7081 12.5644 20.1829C12.0233 21.0994 11.1705 21.4138 10.4423 21.4138H10.4437ZM10.8628 17.594C10.3243 17.594 9.76458 17.781 9.31363 18.1324C8.76188 18.5622 8.47937 19.1657 8.53773 19.7903C8.60405 20.488 9.15712 21.0517 9.94629 21.2281C10.6996 21.3965 11.8084 21.2055 12.4517 20.1166C12.7117 19.6763 12.7647 19.163 12.5989 18.7067C12.4318 18.2465 12.0565 17.8844 11.5697 17.7133C11.3469 17.6337 11.1068 17.5953 10.8614 17.5953L10.8628 17.594ZM4.76434 17.5144C3.90754 17.5024 3.30406 17.2385 2.86107 16.6814C2.31595 15.9997 2.29738 15.1442 2.81067 14.3935C3.37966 13.5619 4.65161 12.8895 5.88906 13.2781C6.49519 13.4691 6.96339 13.9134 7.17427 14.4996C7.38648 15.0912 7.30823 15.7398 6.95675 16.2809C6.44347 17.0727 5.68481 17.4985 4.76302 17.5144H4.76434ZM5.14632 13.298C4.21524 13.298 3.35313 13.8352 2.91942 14.4691C2.43266 15.1801 2.44858 15.9573 2.9632 16.6005C3.37966 17.1231 3.95131 17.3711 4.76302 17.3831C5.63574 17.3685 6.35725 16.9626 6.84534 16.2093C7.17294 15.7039 7.24722 15.0978 7.0496 14.5461C6.8533 13.9996 6.41561 13.5832 5.84927 13.4054C5.61451 13.3312 5.3771 13.298 5.14499 13.298H5.14632ZM5.18213 10.8058C5.16224 10.8058 5.14102 10.8058 5.12112 10.8058C4.49775 10.8204 3.88366 10.5976 3.31865 10.1493C2.61039 9.58562 2.34911 8.86277 2.56662 8.05637C2.78149 7.2619 3.47648 6.69689 4.37971 6.5815C5.43016 6.44622 6.44214 6.94491 6.95808 7.84946C7.33873 8.51395 7.35996 9.19038 7.02042 9.80446C6.65303 10.469 6.03496 10.8058 5.18346 10.8058H5.18213ZM5.11979 10.6732C5.95272 10.6891 6.55222 10.3748 6.90237 9.7408C7.21804 9.16915 7.19814 8.53915 6.84136 7.91578C6.35195 7.05898 5.39169 6.58681 4.3943 6.71413C3.54545 6.82289 2.8929 7.35076 2.69262 8.09218C2.49102 8.84288 2.73507 9.5193 3.39955 10.0472C3.94069 10.4756 4.52162 10.6865 5.11979 10.6745V10.6732ZM10.8416 6.49661C10.1439 6.49661 9.50727 6.23798 8.9847 5.73796C8.40245 5.17957 8.23135 4.49652 8.48998 3.76572C8.71413 3.13173 9.30832 2.69272 10.0816 2.59192C10.819 2.49642 11.8336 2.72455 12.4676 3.65563C12.8602 4.22993 12.9371 4.88646 12.6812 5.45413C12.4278 6.01649 11.892 6.38918 11.2116 6.47407C11.0869 6.48998 10.9636 6.49794 10.8429 6.49794L10.8416 6.49661ZM10.3972 2.70333C10.2938 2.70333 10.193 2.70996 10.0975 2.7219C9.37596 2.81607 8.82156 3.22192 8.61466 3.80816C8.37061 4.49652 8.52579 5.11326 9.07622 5.64113C9.66908 6.20747 10.3813 6.44356 11.1944 6.34144C11.8283 6.26186 12.3257 5.91834 12.5591 5.39842C12.7952 4.87319 12.7223 4.26574 12.3562 3.72991C11.8389 2.96992 11.0524 2.70466 10.3972 2.70466V2.70333Z" fill="#E5A624"/>
<path d="M18.5356 10.4066C17.586 13.1043 19.1709 13.9691 18.842 15.8909C18.5024 17.8791 16.5594 18.716 14.802 17.6231C13.55 16.8446 13.5778 16.1973 11.453 15.1018C10.9756 14.8551 10.5021 14.5845 10.0723 14.2635C8.40383 13.0195 8.41046 10.8655 10.2514 9.61876C10.7382 9.2885 11.2647 9.01396 11.7846 8.73278C13.7754 7.65713 13.7091 6.93826 15.1535 6.23398C17.0647 5.30158 18.7292 6.62392 18.8725 8.42374C18.9428 9.30309 18.5436 10.3893 18.5369 10.4079L18.5356 10.4066Z" fill="#DD7541"/>
<path d="M133.789 16.1014C132.221 16.1014 131.01 15.6576 130.154 14.7701C129.336 13.9193 128.926 12.6179 128.926 10.8612V7.06501H131.571V10.8612C131.571 11.912 131.732 12.6041 132.051 12.9398C132.385 13.287 133.09 13.4595 134.167 13.4595C135.243 13.4595 135.919 13.2985 136.254 12.9789C136.595 12.6455 136.765 11.9396 136.765 10.8635H136.774V7.05811H139.409V15.568C139.409 17.3936 138.965 18.7342 138.078 19.5918C137.234 20.4035 135.93 20.8105 134.169 20.8105C132.764 20.8105 131.66 20.5575 130.853 20.054C129.973 19.4998 129.395 18.6491 129.124 17.504L131.343 17.0028C131.69 18.0283 132.631 18.541 134.167 18.541C135.916 18.541 136.813 17.7914 136.857 16.2946V14.7839C136.303 15.6645 135.279 16.106 133.787 16.106L133.789 16.1014Z" fill="#DD7541"/>
<path d="M136.206 5.97052L138.103 2.95149L140 5.97052H136.206Z" fill="#262465"/>
<path d="M37.854 3.2596C39.1371 3.2665 40.2431 3.66429 41.1766 4.45526C42.0181 5.17265 42.6367 6.13837 43.0345 7.35473C43.3104 8.18249 43.4506 9.06314 43.4575 9.99667C43.4575 10.9302 43.3196 11.8086 43.0437 12.6386C42.6505 13.8297 42.0342 14.7747 41.195 15.4737C40.2752 16.2417 39.1601 16.628 37.854 16.6326H30.6111V3.2619H37.854V3.2596ZM33.2898 5.91994V13.9722H37.8448C39.1509 13.9607 40.0453 13.2364 40.5236 11.7994C40.7006 11.2659 40.7903 10.6865 40.7903 10.061V9.99667C40.7903 9.37125 40.696 8.76882 40.5052 8.19398C40.0016 6.68562 39.1164 5.92684 37.8448 5.91994H33.2898Z" fill="#DD7541"/>
<path d="M51.3949 6.77299C51.2109 6.7569 51.0224 6.75 50.8292 6.75C49.376 6.75 48.316 7.27195 47.6538 8.31355V6.7454H45.2602V16.6326H47.8378V11.7925C47.8447 10.7807 48.0424 10.0863 48.431 9.70695C48.8196 9.32986 49.4657 9.14131 50.3671 9.14131C50.7602 9.14131 51.0982 9.17811 51.3926 9.24709V6.77299H51.3949Z" fill="#DD7541"/>
<path d="M55.1175 13.9607C55.3888 14.2206 55.5245 14.6298 55.5245 15.1886C55.5245 15.7473 55.3888 16.1566 55.1175 16.4187C54.86 16.6671 54.4415 16.7912 53.8644 16.7912C53.2872 16.7912 52.871 16.6671 52.6112 16.4187C52.3399 16.1566 52.2042 15.7473 52.2042 15.1886C52.2042 14.6298 52.3284 14.2528 52.579 13.9929C52.8411 13.7216 53.2688 13.5859 53.8644 13.5859C54.4599 13.5859 54.86 13.7101 55.1175 13.9607Z" fill="#DD7541"/>
<path d="M65.7267 3.2596C67.0097 3.2665 68.1157 3.66429 69.0492 4.45526C69.8908 5.17265 70.5093 6.13837 70.9071 7.35473C71.183 8.18249 71.3233 9.06314 71.3302 9.99667C71.3302 10.9302 71.1922 11.8086 70.9163 12.6386C70.5231 13.8297 69.9069 14.7747 69.0676 15.4737C68.1479 16.2417 67.0327 16.628 65.7267 16.6326H58.4837V3.2619H65.7267V3.2596ZM61.1625 5.91994V13.9722H65.7175C67.0235 13.9607 67.9179 13.2364 68.3962 11.7994C68.5732 11.2659 68.6629 10.6865 68.6629 10.061V9.99667C68.6629 9.37125 68.5686 8.76882 68.3778 8.19398C67.8742 6.68562 66.989 5.92684 65.7175 5.91994H61.1625Z" fill="#DD7541"/>
<path d="M81.96 7.94566C82.8246 8.77342 83.2568 10.0771 83.2568 11.8568C83.2568 13.6365 82.8246 14.9426 81.96 15.7772C81.1368 16.5682 79.8055 16.9637 77.966 16.9637C76.1266 16.9637 74.7999 16.5682 73.9721 15.7772C73.1075 14.9426 72.6753 13.6365 72.6753 11.8568C72.6753 10.0771 73.0731 8.87459 73.8709 8.04683C74.7056 7.18228 76.0714 6.75 77.966 6.75C79.8607 6.75 81.1368 7.14779 81.96 7.94566ZM80.1872 9.71155C79.8584 9.33216 79.118 9.14131 77.9638 9.14131C76.8095 9.14131 76.0461 9.33676 75.7265 9.72535C75.4069 10.1139 75.2482 10.8244 75.2482 11.8568C75.2482 12.8892 75.4138 13.6273 75.7449 14.0067C76.076 14.3861 76.8164 14.5724 77.9638 14.5724C79.1111 14.5724 79.8584 14.3838 80.1872 14.0067C80.516 13.6296 80.6793 12.9122 80.6793 11.8568C80.6793 10.8014 80.516 10.0932 80.1872 9.71155Z" fill="#DD7541"/>
<path d="M94.2799 7.94566C95.1444 8.77342 95.5767 10.0771 95.5767 11.8568C95.5767 13.6365 95.1444 14.9426 94.2799 15.7772C93.4567 16.5682 92.1254 16.9637 90.2859 16.9637C88.4465 16.9637 87.1197 16.5682 86.292 15.7772C85.4274 14.9426 84.9951 13.6365 84.9951 11.8568C84.9951 10.0771 85.3929 8.87459 86.1908 8.04683C87.0255 7.18228 88.3913 6.75 90.2859 6.75C92.1806 6.75 93.4567 7.14779 94.2799 7.94566ZM92.5094 9.71155C92.1806 9.33216 91.4402 9.14131 90.2859 9.14131C89.1317 9.14131 88.3683 9.33676 88.0487 9.72535C87.7291 10.1139 87.5704 10.8244 87.5704 11.8568C87.5704 12.8892 87.736 13.6273 88.0671 14.0067C88.3982 14.3861 89.1386 14.5724 90.2859 14.5724C91.4333 14.5724 92.1806 14.3838 92.5094 14.0067C92.8382 13.6296 93.0014 12.9122 93.0014 11.8568C93.0014 10.8014 92.8382 10.0932 92.5094 9.71155Z" fill="#DD7541"/>
<path d="M104.953 7.94566V3.2619H107.531V16.6326H105.137V15.4001C104.535 16.444 103.569 16.9637 102.238 16.9637C100.649 16.9637 99.4396 16.5682 98.6118 15.7772C97.7473 14.9426 97.315 13.6365 97.315 11.8568C97.315 10.0771 97.7128 8.87459 98.5107 8.04683C99.3453 7.18228 100.527 6.75 102.054 6.75C103.581 6.75 104.475 7.14779 104.953 7.94566ZM104.953 11.7902C104.947 10.7784 104.781 10.1116 104.457 9.79203C104.133 9.41724 103.454 9.23099 102.422 9.23099C101.389 9.23099 100.686 9.43103 100.359 9.82882C100.047 10.1484 99.8903 10.8221 99.8903 11.8545C99.8903 12.8869 100.058 13.5974 100.396 13.917C100.72 14.2918 101.396 14.4781 102.422 14.4781C103.447 14.4781 104.13 14.2918 104.457 13.917C104.781 13.6043 104.947 12.9375 104.953 11.9189V11.7902Z" fill="#DD7541"/>
<path d="M115.406 16.6326C115.064 16.6877 114.666 16.7154 114.22 16.7154C113.477 16.7154 112.76 16.605 112.065 16.3842C110.943 15.8324 110.35 14.5908 110.29 12.657V3.2619H112.868V12.841C112.886 13.8849 113.41 14.4045 114.441 14.4045C114.834 14.4045 115.156 14.3746 115.406 14.3125V16.6326Z" fill="#DD7541"/>
<path d="M117.42 15.7105C116.586 14.8828 116.17 13.5928 116.17 11.8453C116.17 10.0978 116.586 8.81481 117.42 7.98015C118.248 7.15238 119.596 6.7385 121.46 6.7385C123.325 6.7385 124.682 7.15238 125.51 7.98015C126.344 8.81481 126.76 10.1024 126.76 11.8453V12.7007H118.763C118.855 14.0067 119.754 14.6919 121.46 14.754C123.001 14.754 123.974 14.3309 124.378 13.4848L126.588 14.3033C125.937 16.0761 124.229 16.9637 121.463 16.9637C119.598 16.9637 118.251 16.5475 117.423 15.7128L117.42 15.7105ZM124.164 10.9992C124.102 9.67936 123.201 8.99646 121.458 8.94587C119.722 8.99416 118.823 9.67936 118.761 10.9992H124.164Z" fill="#DD7541"/>
</svg>
